<svg xmlns="http://www.w3.org/2000/svg" xmlns:xlink="http://www.w3.org/1999/xlink" viewBox="0 0 76.93 70.46"><defs><style>.cls-1{fill:none;}.cls-2{clip-path:url(#clip-path);}.cls-3{fill:#989898;}.cls-4{fill:#b2b3b3;}.cls-5{fill:#cccbcb;}.cls-6{fill:#e6e6e5;}</style><clipPath id="clip-path"><path class="cls-1" d="M24.6.31c.13,11-2.39,13.84-2.39,13.84l-2.39,3.38S13.08,26.71,9,33.51A87.91,87.91,0,0,0,.68,52.77a22,22,0,0,0,.38,9.69,6.32,6.32,0,0,0,3.65,4c1.76.57,5-.38,5.79-.88s3.34-4.53,5.67-5.42S24,58.37,26.74,57c4-1.76,8.88-6.36,11.71-6.42s7,4.79,10.58,6,10.89,2.9,12.59,4,3.46,4.41,6,5.41a6.86,6.86,0,0,0,5.92-.38c1.45-.69,3.65-5.48,3.15-9.19a65,65,0,0,0-2.64-10.33c-.94-3.09-9.82-18.38-9.82-18.38S59,19.64,56.84,17.13a17.32,17.32,0,0,1-3.15-5.54S52.11,9.51,52.18,0Z"/></clipPath></defs><title>fin-1</title><g id="Layer_2" data-name="Layer 2"><g id="INTERFACE"><g class="cls-2"><path class="cls-3" d="M24.6.31c.13,11-2.39,13.84-2.39,13.84l-2.39,3.38S13.08,26.71,9,33.51A87.91,87.91,0,0,0,.68,52.77a22,22,0,0,0,.38,9.69,6.32,6.32,0,0,0,3.65,4c1.76.57,5-.38,5.79-.88s3.34-4.53,5.67-5.42S24,58.37,26.74,57c4-1.76,8.88-6.36,11.71-6.42s7,4.79,10.58,6,10.89,2.9,12.59,4,3.46,4.41,6,5.41a6.86,6.86,0,0,0,5.92-.38c1.45-.69,3.65-5.48,3.15-9.19a65,65,0,0,0-2.64-10.33c-.94-3.09-9.82-18.38-9.82-18.38S59,19.64,56.84,17.13a17.32,17.32,0,0,1-3.15-5.54S52.11,9.51,52.18,0Z"/><path class="cls-4" d="M76.18,42.23c-.51-2.93-4.6-3.77-4.6-3.77s-3.83-7-7.72-5.84-4.77,3.33-9.25,2.67c-3.39-.5-9-10.08-16.8-10.08s-12,9.18-15.57,9.92-4.52.25-9.29-1.69S4.6,39.14,4.6,39.14s-3.86.06-4.34,3a21.28,21.28,0,0,0,.08,7.1C1.14,54,3.51,54.56,5.06,55s4.56-.63,5.21-1A23,23,0,0,0,12.82,51a66.52,66.52,0,0,0,7.48-1.39c1.32-.53,4.43-3.16,7-4.49C29.79,43.9,34.88,39.54,38,39c4,.44,6.91,4.13,9.46,5.36,2.74,1.32,8.14,5.14,9.53,5.67a56.24,56.24,0,0,0,6.64,1.27,27.39,27.39,0,0,0,2.71,2.61c.68.42,3.83,1.48,5.46,1s4.11-1,4.94-5.76C77.19,46.84,76.55,44.33,76.18,42.23Z"/><path class="cls-5" d="M76.42,54.21A20.15,20.15,0,0,0,75,49.44s-7.28-5.9-11.17-4.77S59.09,48,54.61,47.34c-3.39-.5-9-10.08-16.8-10.08s-12,9.18-15.57,9.92-4.52.25-9.29-1.69-11.68,4.9-11.68,4.9a12.39,12.39,0,0,0-1,3.81,21.28,21.28,0,0,0,.08,7.1C1.14,66,3.51,66.61,5.06,67s4.56-.63,5.21-1a23,23,0,0,0,2.55-2.93,8.66,8.66,0,0,1,2.72-2.35c1.32-.53,9.19-2.2,11.81-3.53C29.79,56,34.88,51.59,38,51.09c4,.44,6.91,4.13,9.46,5.36,2.74,1.32,12,3.73,13.38,4.27s2.8,2.67,2.8,2.67A27.39,27.39,0,0,0,66.32,66c.68.42,3.83,1.48,5.46,1s4.11-1,4.94-5.76A19.88,19.88,0,0,0,76.42,54.21Z"/><path class="cls-6" d="M2.09,65A115.86,115.86,0,0,1,6.32,51.2Q8.84,44.44,12,38c1.07-2.15,2.18-4.29,3.39-6.37s2.48-4.12,3.7-6.18a67.25,67.25,0,0,0,3.45-6.29c1-2.16,1.92-4.38,2.74-6.64a0,0,0,0,1,0,0,0,0,0,0,1,0,0,56.1,56.1,0,0,1-2.41,6.8,61.46,61.46,0,0,1-3.31,6.42c-2.48,4.12-5,8.18-7.17,12.46S8.33,46.83,6.6,51.3A115.66,115.66,0,0,0,2.15,65a0,0,0,0,1,0,0A0,0,0,0,1,2.09,65Z"/><path class="cls-6" d="M3.33,66.69a124,124,0,0,1,4-14A134.24,134.24,0,0,1,12.9,39.3q1.55-3.29,3.29-6.49l3.57-6.32A70.08,70.08,0,0,0,25.3,13.14a0,0,0,0,1,.06,0,57.21,57.21,0,0,1-5.08,13.61c-2.37,4.24-4.85,8.38-7,12.73a133.84,133.84,0,0,0-5.7,13.33A123.86,123.86,0,0,0,3.39,66.71a0,0,0,0,1,0,0A0,0,0,0,1,3.33,66.69Z"/><path class="cls-6" d="M5.84,70.05a128,128,0,0,1,4.7-15.36c1.86-5,3.91-10,6.12-14.87,1.09-2.45,2.23-4.88,3.39-7.29s2.39-4.79,3.48-7.23a72.77,72.77,0,0,0,4.8-15.25,0,0,0,0,1,.06,0,61.13,61.13,0,0,1-4.31,15.48c-2.23,4.89-4.76,9.6-7,14.47s-4.36,9.78-6.27,14.77A127.89,127.89,0,0,0,5.9,70.06a0,0,0,0,1,0,0A0,0,0,0,1,5.84,70.05Z"/><path class="cls-6" d="M8.31,70.42a137.3,137.3,0,0,1,4-15.45A153.81,153.81,0,0,1,18,40.05l3.19-7.32c1.07-2.43,2.12-4.87,3.06-7.35a79.35,79.35,0,0,0,4.22-15.33,0,0,0,0,1,.06,0A65.51,65.51,0,0,1,24.85,25.6c-1.88,5-4.2,9.8-6.37,14.65a153.49,153.49,0,0,0-5.86,14.82A137.12,137.12,0,0,0,8.37,70.43a0,0,0,0,1,0,0A0,0,0,0,1,8.31,70.42Z"/><path class="cls-6" d="M11,69.68a76.45,76.45,0,0,1,3.14-15.26c.74-2.49,1.61-4.95,2.51-7.39s1.9-4.84,2.86-7.26l2.84-7.26c.94-2.42,1.87-4.84,2.71-7.29a77.33,77.33,0,0,0,3.77-15v0a0,0,0,0,0-.06,0h0A37.14,37.14,0,0,1,27.7,17.9a76.68,76.68,0,0,1-2.1,7.53c-1.7,4.93-3.69,9.73-5.68,14.53-1,2.4-2,4.8-2.94,7.21S15.16,52,14.39,54.51A76.31,76.31,0,0,0,11,69.69a0,0,0,0,1,0,0A0,0,0,0,1,11,69.68Z"/><path class="cls-6" d="M15.15,64.19a131.69,131.69,0,0,1,3.78-13.62c1.47-4.48,3.18-8.88,5-13.24q1.31-3.28,2.47-6.61T28.53,24a70,70,0,0,0,2.73-13.8,0,0,0,0,1,.06,0,56.53,56.53,0,0,1-2.22,14,117.58,117.58,0,0,1-4.77,13.32c-1.83,4.34-3.6,8.7-5.12,13.16a131.44,131.44,0,0,0-4,13.54,0,0,0,0,1,0,0A0,0,0,0,1,15.15,64.19Z"/><path class="cls-6" d="M18,62.8c1-4.43,2.1-8.83,3.3-13.2s2.57-8.71,4-13,2.86-8.6,3.88-13a121.61,121.61,0,0,0,2.34-13.37,0,0,0,0,1,.06,0,83.61,83.61,0,0,1-1.81,13.5,120.68,120.68,0,0,1-4,13c-1.5,4.28-2.92,8.58-4.19,12.93s-2.47,8.72-3.53,13.13a0,0,0,0,1,0,0A0,0,0,0,1,18,62.8Z"/><path class="cls-6" d="M20.46,62.06c.65-4.38,1.6-8.72,2.66-13s2.33-8.56,3.6-12.79c.63-2.12,1.22-4.25,1.78-6.39s1.08-4.28,1.48-6.45c.87-4.33,1.28-8.74,1.84-13.13a0,0,0,0,1,0,0,0,0,0,0,1,0,0,108.27,108.27,0,0,1-1.31,13.24,110.45,110.45,0,0,1-3.39,12.87c-1.33,4.23-2.65,8.44-3.77,12.73s-2.15,8.59-2.89,13a0,0,0,0,1,0,0A0,0,0,0,1,20.46,62.06Z"/><path class="cls-6" d="M24,61.74A121.43,121.43,0,0,1,26.5,48.94c1.1-4.22,2.4-8.37,3.46-12.58s2-8.46,2.7-12.74S34,15,34.43,10.7a0,0,0,0,1,.06,0,107.16,107.16,0,0,1-1.24,13c-.37,2.15-.77,4.29-1.24,6.42s-1,4.24-1.58,6.34C29.3,40.68,27.94,44.83,26.79,49A121.31,121.31,0,0,0,24,61.75a0,0,0,0,1,0,0A0,0,0,0,1,24,61.74Z"/><path class="cls-6" d="M26.47,60.84c.51-4.21,1.22-8.39,2-12.56S30.22,40,31,35.82s1.51-8.33,2.11-12.52,1.15-8.39,1.55-12.61a0,0,0,0,1,0,0,0,0,0,0,1,0,0,113.25,113.25,0,0,1-1,12.69c-.58,4.21-1.33,8.38-2.23,12.53s-1.92,8.26-2.76,12.41-1.65,8.31-2.23,12.51a0,0,0,0,1,0,0A0,0,0,0,1,26.47,60.84Z"/><path class="cls-6" d="M28.93,59.77q.6-6.16,1.38-12.29c.52-4.09,1.16-8.17,1.87-12.23s1.1-8.16,1.54-12.25S34.61,14.8,35,10.7a0,0,0,0,1,0,0,0,0,0,0,1,0,0c-.08,4.13-.4,8.24-.77,12.35q-.32,3.08-.71,6.15c-.28,2-.6,4.09-1,6.12C31.1,43.42,30,51.59,29,59.78a0,0,0,0,1-.06,0Z"/><path class="cls-6" d="M34.71,55.56l1.65-22.42c.24-3.73.39-7.47.54-11.21l.52-11.23a0,0,0,0,1,0,0,0,0,0,0,1,0,0c.13,3.75.09,7.5,0,11.25s-.32,7.49-.66,11.23L34.77,55.57a0,0,0,0,1,0,0A0,0,0,0,1,34.71,55.56Z"/><path class="cls-6" d="M32.89,56.47c.27-3.82.67-7.62,1.13-11.42s1-7.58,1.41-11.38q.29-2.85.51-5.71t.44-5.71c.31-3.81.52-7.62.7-11.44a0,0,0,0,1,0,0,0,0,0,0,1,0,0c.16,3.83,0,7.66-.17,11.48s-.6,7.63-1.07,11.43-1.06,7.58-1.59,11.37-1,7.58-1.36,11.38a0,0,0,0,1,0,0A0,0,0,0,1,32.89,56.47Z"/><path class="cls-6" d="M36.66,54.28c.2-3.62.29-7.24.36-10.86s.14-7.25.18-10.87.06-7.25.11-10.87.18-7.25.37-10.87a0,0,0,0,1,.06,0c.15,3.63.16,7.25.17,10.88s-.11,7.25-.23,10.87c-.21,7.25-.43,14.5-1,21.73a0,0,0,0,1-.06,0Z"/><path class="cls-6" d="M75.31,65A115.66,115.66,0,0,0,70.86,51.3c-1.73-4.47-3.68-8.86-5.84-13.13s-4.69-8.34-7.17-12.46a61.46,61.46,0,0,1-3.31-6.42,56.1,56.1,0,0,1-2.41-6.8,0,0,0,0,1,.06,0c.82,2.26,1.71,4.48,2.74,6.64a67.19,67.19,0,0,0,3.44,6.29c1.22,2.06,2.49,4.1,3.7,6.18S64.38,35.8,65.45,38q3.18,6.48,5.69,13.24A115.86,115.86,0,0,1,75.37,65a0,0,0,0,1,0,0A0,0,0,0,1,75.31,65Z"/><path class="cls-6" d="M74.07,66.71a123.86,123.86,0,0,0-4.24-13.87,133.84,133.84,0,0,0-5.7-13.33c-2.11-4.36-4.58-8.49-7-12.73A57.21,57.21,0,0,1,52.1,13.16a0,0,0,0,1,.06,0,70.1,70.1,0,0,0,5.55,13.34l3.57,6.32Q63,36,64.56,39.3a134.24,134.24,0,0,1,5.55,13.44,124,124,0,0,1,4,14,0,0,0,0,1,0,0A0,0,0,0,1,74.07,66.71Z"/><path class="cls-6" d="M71.56,70.06a127.85,127.85,0,0,0-4.92-15.27c-1.92-5-4-9.92-6.27-14.77s-4.75-9.58-7-14.47a61.14,61.14,0,0,1-4.31-15.48,0,0,0,0,1,.06,0,72.77,72.77,0,0,0,4.8,15.25c1.09,2.43,2.31,4.82,3.48,7.23s2.3,4.84,3.39,7.29c2.2,4.89,4.25,9.84,6.12,14.87a128,128,0,0,1,4.7,15.36,0,0,0,0,1,0,0A0,0,0,0,1,71.56,70.06Z"/><path class="cls-6" d="M69.09,70.43a137.12,137.12,0,0,0-4.25-15.37A153.49,153.49,0,0,0,59,40.25c-2.17-4.85-4.49-9.65-6.37-14.65a65.5,65.5,0,0,1-3.72-15.53,0,0,0,0,1,0,0,0,0,0,0,1,0,0,79.37,79.37,0,0,0,4.22,15.33c.94,2.48,2,4.92,3.06,7.35l3.19,7.32A153.88,153.88,0,0,1,65.12,55a137.35,137.35,0,0,1,4,15.45,0,0,0,0,1,0,0A0,0,0,0,1,69.09,70.43Z"/><path class="cls-6" d="M66.44,69.69a76.29,76.29,0,0,0-3.37-15.17c-.77-2.48-1.66-4.92-2.59-7.34s-2-4.81-2.94-7.21c-2-4.8-4-9.61-5.68-14.53a76.68,76.68,0,0,1-2.1-7.53,37.14,37.14,0,0,1-1.05-7.74,0,0,0,0,0-.06,0h0v0a77.33,77.33,0,0,0,3.77,15c.84,2.45,1.77,4.87,2.71,7.29L58,39.78c1,2.42,1.94,4.82,2.86,7.26s1.77,4.9,2.51,7.39A76.45,76.45,0,0,1,66.5,69.68a0,0,0,0,1,0,0A0,0,0,0,1,66.44,69.69Z"/><path class="cls-6" d="M62.25,64.2a131.44,131.44,0,0,0-4-13.54c-1.52-4.46-3.29-8.81-5.12-13.16a117.58,117.58,0,0,1-4.77-13.32,56.54,56.54,0,0,1-2.22-14,0,0,0,0,1,0,0,0,0,0,0,1,0,0A70,70,0,0,0,48.93,24q1,3.39,2.17,6.7t2.47,6.61c1.78,4.36,3.49,8.76,5,13.24a131.69,131.69,0,0,1,3.78,13.62,0,0,0,0,1,0,0A0,0,0,0,1,62.25,64.2Z"/><path class="cls-6" d="M59.41,62.82c-1.06-4.41-2.25-8.79-3.53-13.13S53.19,41,51.69,36.75a120.68,120.68,0,0,1-4-13,83.61,83.61,0,0,1-1.81-13.5,0,0,0,0,1,0,0,0,0,0,0,1,0,0,121.61,121.61,0,0,0,2.34,13.37c1,4.4,2.48,8.69,3.88,13s2.81,8.63,4,13,2.32,8.77,3.3,13.2a0,0,0,0,1,0,0A0,0,0,0,1,59.41,62.82Z"/><path class="cls-6" d="M56.94,62.07c-.73-4.37-1.76-8.68-2.89-13s-2.44-8.5-3.77-12.73a110.45,110.45,0,0,1-3.39-12.87,108.22,108.22,0,0,1-1.31-13.24,0,0,0,0,1,0,0,0,0,0,0,1,0,0c.56,4.39,1,8.81,1.84,13.13.4,2.17.91,4.32,1.48,6.45s1.15,4.27,1.78,6.39C52,40.48,53.28,44.74,54.34,49s2,8.64,2.66,13a0,0,0,0,1,0,0A0,0,0,0,1,56.94,62.07Z"/><path class="cls-6" d="M53.45,61.75A121.31,121.31,0,0,0,50.67,49c-1.16-4.19-2.52-8.33-3.63-12.54-.58-2.1-1.1-4.22-1.58-6.34s-.87-4.27-1.24-6.42A107.16,107.16,0,0,1,43,10.7a0,0,0,0,1,.06,0c.47,4.33,1,8.64,1.77,12.91s1.64,8.53,2.7,12.74S49.86,44.72,51,48.94a121.43,121.43,0,0,1,2.54,12.81,0,0,0,0,1,0,0A0,0,0,0,1,53.45,61.75Z"/><path class="cls-6" d="M50.93,60.84c-.58-4.2-1.38-8.36-2.23-12.51s-1.87-8.26-2.76-12.41-1.65-8.33-2.23-12.53a113.25,113.25,0,0,1-1-12.69,0,0,0,0,1,.06,0c.4,4.22.91,8.42,1.55,12.61s1.31,8.36,2.11,12.52S48.22,44.1,49,48.27s1.49,8.35,2,12.56a0,0,0,0,1,0,0A0,0,0,0,1,50.93,60.84Z"/><path class="cls-6" d="M48.47,59.78c-1-8.19-2.11-16.35-3.67-24.45-.36-2-.67-4.08-1-6.12s-.5-4.1-.71-6.15c-.36-4.11-.69-8.22-.77-12.35a0,0,0,0,1,0,0,0,0,0,0,1,0,0c.42,4.1.83,8.2,1.3,12.29s.91,8.19,1.54,12.25,1.35,8.14,1.87,12.23,1,8.19,1.38,12.29a0,0,0,0,1-.06,0Z"/><path class="cls-6" d="M42.69,55.57,40.63,33.18c-.34-3.74-.53-7.48-.66-11.23s-.12-7.5,0-11.25a0,0,0,0,1,.06,0l.52,11.23c.14,3.74.3,7.48.54,11.21l1.65,22.42a0,0,0,0,1-.06,0Z"/><path class="cls-6" d="M44.51,56.47c-.35-3.81-.83-7.6-1.36-11.38S42,37.53,41.55,33.72s-.83-7.61-1.07-11.43-.33-7.65-.17-11.48a0,0,0,0,1,0,0,0,0,0,0,1,0,0c.18,3.82.4,7.63.7,11.44q.18,2.86.44,5.71T42,33.67c.37,3.8.94,7.58,1.41,11.38s.86,7.6,1.13,11.42a0,0,0,0,1,0,0A0,0,0,0,1,44.51,56.47Z"/><path class="cls-6" d="M40.74,54.29c-.53-7.23-.76-14.48-1-21.73q-.18-5.44-.23-10.87c0-3.63,0-7.25.17-10.88a0,0,0,0,1,.06,0c.19,3.62.27,7.25.37,10.87s.09,7.25.11,10.87.1,7.25.18,10.87.17,7.25.36,10.86a0,0,0,0,1-.06,0Z"/></g></g></g></svg>